# xmcd
# Track frame offsets:
# 150
# 13940
# 27323
# 41653
# 54243
# 69000
# 81485
# 92625
# 106023
# 117580
# 128410
# 141418
#
# Disc length: 2041 seconds
# Revision: 4
# Processed by: cddbd v1.5.2PL0 Copyright (c) Steve Scherf et al.
# Submitted via: VisiTrax 2.11.2.271 - For more info visit www.synapsa.com
#
DISCID=9a07f70c
DTITLE=Patti Page - The Best Of Patti Page: 20th Century Masters
DYEAR=2003
DGENRE=Vocal Pop
TTITLE0=Tennessee Waltz
TTITLE1=Mockin' Bird Hill
TTITLE2=Mister And Mississippi
TTITLE3=Detour
TTITLE4=I Went To Your Wedding
TTITLE5=Why Don't You Believe Me?
TTITLE6=(How Much Is) That Doggie In The Window
TTITLE7=Changing Partners
TTITLE8=Cross Over The Bridge
TTITLE9=Let Me Go Lover!
TTITLE10=Allegheny Moon
TTITLE11=Old Cape Cod
EXTD=Patti Page [Clara Ann Fowler, b.1927]: vocals\nWith orchestras led b
EXTD=y Jack Rael (tracks 1-10) and Vic Schoen (11,12).\nCompilation produce
EXTD=d by Bill Levenson.\nMastered by Jeff Willens at Universal Mastering S
EXTD=tudios-East, New York US-NY.\nCD: UM/Mercury Nashville "The Millenniu
EXTD=m Collection" 170359 (2003-03-04), UPC 008817035925, BMG D146589.
EXTT0=(Redd Stewart/Pee Wee King]\nMercury single 5534 (1950-10-16).
EXTT1=(Vaughn Horton]\nMercury single 5595 (1951-01-26).
EXTT2=(Irving Gordon]\nMercury single 5645 (1951-04-23).
EXTT3=(Paul Westmoreland]\nMercury single 5682 (1951-06-29).
EXTT4=(Jessie Mae Robinson]\nMercury single 5899 (1952-08-16).
EXTT5=(Roy Rodde/King Laney/Lew Douglas]\nMercury single 70025 (1952-10-21).
EXTT6=(Bob Merrill]\nMercury single 70070 (1952-12-29).
EXTT7=(Joseph Danon/Lawrence Coleman]\nMercury single 70260 (1953-10-29).
EXTT8=(Bennie Benjamin/George Weiss]\nMercury single 70302 (1954-01-11).
EXTT9=(Jenny Lou Carson/Kathleen Twomey/Fred Wise/Benjamin Weisman/Al Hill
EXTT9=]\nMercury single 70511 (1954-11-17).
EXTT10=(Al Hoffman/Dick Manning]\nMercury single 70878 (1956-05-14).
EXTT11=(Claire Rothrock/Milt Yakus/Allan Jeffrey]\nMercury single 71101 (1957
EXTT11=04-17).
PLAYORDER=
